<svg id="Layer_1" data-name="Layer 1" xmlns="http://www.w3.org/2000/svg" viewBox="0 0 489.91 123.09"><defs><style>.cls-1{fill:#62cbc9;}.cls-2{fill:#008996;}</style></defs><title>myloan_logo</title><path class="cls-1" d="M207,79.7h.84l19.42,32.75a51,51,0,0,1,2.83,5.84,51,51,0,0,1,2.83-5.84L252.35,79.7h.75L259.35,137h-6.08l-3.92-34.59c-.41-3.5-.5-8.5-.5-8.5a53.33,53.33,0,0,1-3.58,8.09l-15,25.5h-.67L214.68,102A60.49,60.49,0,0,1,211,93.87s-.08,5.08-.5,8.58L206.6,137h-5.84Z" transform="translate(-65.55 -51.91)"/><path class="cls-1" d="M279.44,134.12l-14.67-31.58h6.42L280.94,124a35,35,0,0,1,1.59,5.83,27.9,27.9,0,0,1,1.58-5.83l9-21.42h6l-22.5,52.17h-6Z" transform="translate(-65.55 -51.91)"/><path class="cls-1" d="M309,80.37h6v51.34H341.7V137H309Z" transform="translate(-65.55 -51.91)"/><path class="cls-1" d="M347,119.79a18.25,18.25,0,1,1,18.33,17.92C355,137.71,347,129.87,347,119.79Zm30.59,0c0-7.42-4.92-12.92-12.26-12.92S353,112.37,353,119.79s5,12.92,12.41,12.92S377.63,127.21,377.63,119.79Z" transform="translate(-65.55 -51.91)"/><path class="cls-1" d="M391.55,119.71c0-10.26,7.16-17.92,16.58-17.92A14,14,0,0,1,421.3,110l-.17-7.41H427V137h-5.84l.17-7.42a14.57,14.57,0,0,1-13.25,8.09C398.8,137.71,391.55,130,391.55,119.71Zm29.75.08c0-7.34-4.75-12.84-12-12.84s-11.67,5.34-11.67,12.76,4.42,12.91,11.67,12.91S421.3,127.21,421.3,119.79Z" transform="translate(-65.55 -51.91)"/><path class="cls-1" d="M439.39,102.54h5.83l-.17,7.08a13.21,13.21,0,0,1,12.42-7.83c7.67,0,12.92,5.25,12.92,14.25v21h-5.83V116.71c0-6.09-2.84-9.59-8.59-9.59-6.42,0-10.75,4.08-10.75,10.92v19h-5.83Z" transform="translate(-65.55 -51.91)"/><path class="cls-2" d="M293.23,165.24l3.36-2c.65,1.15,1.24,2.12,2.65,2.12s2.21-.53,2.21-2.59v-14h4.13v14.09c0,4.28-2.51,6.23-6.16,6.23A6.4,6.4,0,0,1,293.23,165.24Z" transform="translate(-65.55 -51.91)"/><path class="cls-2" d="M308.32,162.44c0-3.8,2.45-6.51,5.6-6.51a4,4,0,0,1,3.83,2.15l-.06-1.89h3.95v12.56h-3.95l.06-1.92a4.14,4.14,0,0,1-3.89,2.19C310.85,169,308.32,166.3,308.32,162.44Zm1.5-10.85a2.24,2.24,0,1,1,2.24,2.24A2.3,2.3,0,0,1,309.82,151.59Zm7.93,10.85c0-1.86-1-3-2.68-3s-2.62,1.15-2.62,3,.94,3.1,2.62,3.1S317.75,164.36,317.75,162.44Zm-1.5-10.85a2.24,2.24,0,1,1,2.24,2.24A2.3,2.3,0,0,1,316.25,151.59Z" transform="translate(-65.55 -51.91)"/><path class="cls-2" d="M324.77,156.19h4l-.09,1.95a3.88,3.88,0,0,1,3.56-2.21,3.66,3.66,0,0,1,3.54,2.15,5.27,5.27,0,0,1,4.28-2.15c3.15,0,5,2.09,5,5.54v7.28h-3.95v-6.93c0-1.47-.47-2.27-2-2.27s-2.21.77-2.21,2.48v6.72h-3.95v-6.93c0-1.47-.44-2.27-1.94-2.27s-2.24.77-2.24,2.48v6.72h-4Z" transform="translate(-65.55 -51.91)"/><path class="cls-2" d="M349.35,159.49h-2.09v-3.3h2.09V152c0-3.25,1.53-4.9,4.63-4.9a4.68,4.68,0,0,1,3.86,1.59l-2.15,2.66a1.56,1.56,0,0,0-1.27-.68c-.65,0-1.09.35-1.09,1.27v4.27h3.39v3.3h-3.39v9.26h-4Z" transform="translate(-65.55 -51.91)"/><path class="cls-2" d="M358.43,162.5a6.92,6.92,0,0,1,13.82,0c0,3.8-3,6.52-6.9,6.52S358.43,166.3,358.43,162.5Zm1.44-10.91a2.24,2.24,0,1,1,2.24,2.24A2.3,2.3,0,0,1,359.87,151.59Zm8.31,10.91c0-1.89-1.06-3.15-2.83-3.15s-2.86,1.26-2.86,3.15a2.83,2.83,0,0,0,2.86,3.15C367.12,165.65,368.18,164.36,368.18,162.5Zm-1.88-10.91a2.24,2.24,0,1,1,2.24,2.24A2.3,2.3,0,0,1,366.3,151.59Z" transform="translate(-65.55 -51.91)"/><path class="cls-2" d="M374.93,156.19h4l-.06,2.27a3.79,3.79,0,0,1,3.69-2.53,4,4,0,0,1,1.94.5l-1.26,3.62a3.61,3.61,0,0,0-1.54-.38c-1.8,0-2.77.83-2.77,3.51v5.57h-4Z" transform="translate(-65.55 -51.91)"/><path class="cls-2" d="M383.89,166.42a2.49,2.49,0,1,1,2.51,2.51A2.47,2.47,0,0,1,383.89,166.42Z" transform="translate(-65.55 -51.91)"/><path class="cls-2" d="M398.66,148.7h4.13v16.42h9.08v3.63H398.66Z" transform="translate(-65.55 -51.91)"/><path class="cls-2" d="M413.66,162.44c0-3.8,2.45-6.51,5.6-6.51a4,4,0,0,1,3.83,2.15l0-1.89H427v12.56H423l0-1.92A4.13,4.13,0,0,1,419.2,169C416.2,169,413.66,166.3,413.66,162.44Zm2.68-11.17a3.82,3.82,0,1,1,3.81,3.51A3.65,3.65,0,0,1,416.34,151.27Zm6.75,11.17c0-1.86-1-3-2.68-3s-2.62,1.15-2.62,3,.94,3.1,2.62,3.1S423.09,164.36,423.09,162.44Zm-1.68-11.17a1.27,1.27,0,1,0-1.26,1.32A1.22,1.22,0,0,0,421.41,151.27Z" transform="translate(-65.55 -51.91)"/><path class="cls-2" d="M430.11,156.19h4l-.09,2.06a4.3,4.3,0,0,1,4-2.32c2.74,0,4.72,2,4.72,5.57v7.25h-4v-7c0-1.41-.68-2.21-2.1-2.21a2.28,2.28,0,0,0-2.53,2.48v6.72h-4Z" transform="translate(-65.55 -51.91)"/><path class="cls-2" d="M445.32,162.44c0-3.8,2.44-6.51,5.6-6.51a4,4,0,0,1,3.83,2.15l-.06-1.89h3.95v12.56h-3.95l.06-1.92a4.14,4.14,0,0,1-3.89,2.19C447.85,169,445.32,166.3,445.32,162.44Zm9.43,0c0-1.86-1-3-2.68-3s-2.62,1.15-2.62,3,.94,3.1,2.62,3.1S454.75,164.36,454.75,162.44Z" transform="translate(-65.55 -51.91)"/><path class="cls-2" d="M461.38,166.42a2.49,2.49,0,1,1,2.51,2.51A2.47,2.47,0,0,1,461.38,166.42Z" transform="translate(-65.55 -51.91)"/><path class="cls-2" d="M474.41,164.8l3.36-2a4.48,4.48,0,0,0,4.07,2.51c1.71,0,2.8-.86,2.8-2,0-1.42-1.12-1.92-3-2.75l-1-.44c-3-1.27-5-2.86-5-6.22,0-3.09,2.35-5.45,6-5.45a6.1,6.1,0,0,1,5.87,3.3l-3.22,2.06a2.81,2.81,0,0,0-2.65-1.77,1.8,1.8,0,0,0-2,1.77c0,1.24.77,1.74,2.54,2.51l1,.44c3.51,1.5,5.49,3,5.49,6.49,0,3.71-2.92,5.75-6.84,5.75S475.62,167.19,474.41,164.8Z" transform="translate(-65.55 -51.91)"/><path class="cls-2" d="M491.45,156.19h4l-.08,1.95a4.32,4.32,0,0,1,4-2.21c3,0,5.61,2.65,5.61,6.51s-2.63,6.58-5.69,6.58a4.18,4.18,0,0,1-3.87-2V175h-4Zm9.43,6.25c0-1.86-1.06-3-2.74-3a2.73,2.73,0,0,0-2.83,3c0,2,1.12,3.1,2.83,3.1S500.88,164.42,500.88,162.44Z" transform="translate(-65.55 -51.91)"/><path class="cls-2" d="M507.27,162.44c0-3.8,2.45-6.51,5.6-6.51a4,4,0,0,1,3.84,2.15l-.06-1.89h4v12.56h-4l.06-1.92a4.15,4.15,0,0,1-3.89,2.19C509.81,169,507.27,166.3,507.27,162.44Zm9.44,0c0-1.86-1-3-2.69-3s-2.62,1.15-2.62,3,.94,3.1,2.62,3.1S516.71,164.36,516.71,162.44Z" transform="translate(-65.55 -51.91)"/><path class="cls-2" d="M523.72,156.19h4l-.06,2.27a3.78,3.78,0,0,1,3.68-2.53,4,4,0,0,1,1.95.5L532,160.05a3.53,3.53,0,0,0-1.53-.38c-1.8,0-2.77.83-2.77,3.51v5.57h-4Z" transform="translate(-65.55 -51.91)"/><path class="cls-2" d="M534.42,162.44c0-3.8,2.45-6.51,5.6-6.51a4,4,0,0,1,3.83,2.15l-.06-1.89h4v12.56h-4l.06-1.92A4.14,4.14,0,0,1,540,169C537,169,534.42,166.3,534.42,162.44Zm9.43,0c0-1.86-1-3-2.68-3s-2.62,1.15-2.62,3,.94,3.1,2.62,3.1S543.85,164.36,543.85,162.44Z" transform="translate(-65.55 -51.91)"/><path class="cls-2" d="M550.48,166.42a2.49,2.49,0,1,1,2.51,2.51A2.47,2.47,0,0,1,550.48,166.42Z" transform="translate(-65.55 -51.91)"/><path class="cls-1" d="M82.85,68.6" transform="translate(-65.55 -51.91)"/><path class="cls-1" d="M129.06,147.58l-1.51-77.21L86.22,136.58l-.45,0L68.17,91.39a56.51,56.51,0,0,0,45.08,72.83Z" transform="translate(-65.55 -51.91)"/><path class="cls-1" d="M87,127.63l44.19-71.22.6.06L133.45,143l43.9-46.19A56.5,56.5,0,0,0,70.47,85.37Z" transform="translate(-65.55 -51.91)"/><path class="cls-1" d="M118.68,164.8c1.12.06,2.24.11,3.37.11a56.5,56.5,0,0,0,56.5-56.5,58.17,58.17,0,0,0-.31-5.94Z" transform="translate(-65.55 -51.91)"/></svg>